# xmcd
#
# Track frame offsets:
#	150
#	10478
#	22063
#	34720
#	48823
#	60505
#	72576
#	86839
#	99164
#	110660
#	126825
#
# Disc length: 1846 seconds
#
# Revision: 1
# Processed by: cddbd v1.5PL3 Copyright (c) Steve Scherf et al.
# Submitted via: audiograbber 1.83.01
#
DISCID=9107340b
DTITLE=Merle Haggard - Keep Movin' On
DYEAR=1975
DGENRE=Country
TTITLE0=Movin' On
TTITLE1=Life's Like Poetry
TTITLE2=I've Got a Darlin' (for a Wife)
TTITLE3=These Mem'ries We're Making Tonight
TTITLE4=You'll Always Be Special
TTITLE5=September in Miami
TTITLE6=Always Wanting You
TTITLE7=Kentucky Gambler
TTITLE8=Here in Frisco
TTITLE9=I've Got a Yearning
TTITLE10=A Man's Gotta Give Up a Lot
EXTD=
EXTT0=
EXTT1=
EXTT2=
EXTT3=
EXTT4=
EXTT5=
EXTT6=
EXTT7=
EXTT8=
EXTT9=
EXTT10=
PLAYORDER=
